{"title":"Marley (2012) iTALiAN AC3 HDTV XviD - ATV.avi","uid":9511383,"size":1806647920,"categoryP":"video","categoryS":"hd___movies","magnet":"?xt=urn:btih:696a433a41e928fccd92f6af68939fabfcf61fe7&amp;dn=Marley+%282012%29+iTALiAN+AC3+HDTV+XviD+-+ATV.avi&amp;tr=udp%3A%2F%2Ftracker.openbittorrent.com%3A80&amp;tr=udp%3A%2F%2Fopen.demonii.com%3A1337&amp;tr=udp%3A%2F%2Ftracker.coppersurfer.tk%3A6969&amp;tr=udp%3A%2F%2Fexodus.desync.com%3A6969","seeders":1,"leechers":0,"uploader":"d4rk9","files":-1,"time":1390416588,"description":"Marley (2012) iTALiAN AC3 HDTV XviD - ATV\n\nGeneral\nFormat                                   : AVI\nFormat/Info                              : Audio Video Interleave\nFile size                                : 1.68 GiB\nDuration                                 : 1h 55mn\nOverall bit rate                         : 2 087 Kbps\n\n==================================================\n\nVideo\nID                                       : 0\nFormat                                   : MPEG-4 Visual\nFormat profile                           : Advanced Simple@L5\nFormat settings, BVOP                    : 2\nFormat settings, QPel                    : No\nFormat settings, GMC                     : No warppoints\nFormat settings, Matrix                  : Default (H.263)\nCodec ID                                 : XVID\nCodec ID/Hint                            : XviD\nDuration                                 : 1h 55mn\nBit rate                                 : 1 631 Kbps\nWidth                                    : 720 pixels\nHeight                                   : 384 pixels\nDisplay aspect ratio                     : 1.85:1\nFrame rate                               : 25.000 fps\nColor space                              : YUV\nChroma subsampling                       : 4:2:0\nBit depth                                : 8 bits\nScan type                                : Progressive\nCompression mode                         : Lossy\nBits/(Pixel*Frame)                       : 0.236\nStream size                              : 1.32 GiB (78%)\n\nAudio\nID                                       : 1\nFormat                                   : AC-3\nFormat/Info                              : Audio Coding 3\nMode extension                           : CM (complete main)\nFormat settings, Endianness              : Big\nCodec ID                                 : 2000\nDuration                                 : 1h 55mn\nBit rate mode                            : Constant\nBit rate                                 : 448 Kbps\nChannel(s)                               : 6 channels\nChannel positions                        : Front: L C R, Side: L R, LFE\nSampling rate                            : 48.0 KHz\nBit depth                                : 16 bits\nCompression mode                         : Lossy\nStream size                              : 370 MiB (21%)\nAlignment                                : Aligned on interleaves\nInterleave, duration                     : 64 ms (1.60 video frames)\nInterleave, preload duration             : 192 ms\n\n==================================================\n\nDATA USCITA: 26 giugno 2012\nGENERE: Biografico, Documentario, Musicale\nANNO: 2012\nREGIA: Kevin Macdonald\nATTORI: Bob Marley,\n\nFOTOGRAFIA: Wally Pfister\nMONTAGGIO: Dan Glendenning\nPRODUZIONE: Cowboy Films, Shangri-La Entertainment, Tuff Gong Pictures\nDISTRIBUZIONE: Lucky Red\nPAESE: Gran Bretagna, USA\nDURATA: 144 Min\n","torrent":{"xt":"urn:btih:696a433a41e928fccd92f6af68939fabfcf61fe7","amp;dn":"Marley+%282012%29+iTALiAN+AC3+HDTV+XviD+-+ATV.avi","amp;tr":["udp%3A%2F%2Ftracker.openbittorrent.com%3A80","udp%3A%2F%2Fopen.demonii.com%3A1337","udp%3A%2F%2Ftracker.coppersurfer.tk%3A6969","udp%3A%2F%2Fexodus.desync.com%3A6969"],"infoHash":"696a433a41e928fccd92f6af68939fabfcf61fe7","infoHashBuffer":{"type":"Buffer","data":[105,106,67,58,65,233,40,252,205,146,246,175,104,147,159,171,252,246,31,231]},"announce":[],"urlList":[]}}